<mxfile host="app.diagrams.net" agent="Mozilla/5.0 (Windows NT 10.0; Win64; x64) AppleWebKit/537.36 (KHTML, like Gecko) Chrome/136.0.0.0 Safari/537.36 Edg/136.0.0.0" version="26.0.10">
  <diagram name="Strona-1" id="xqY9L8ijfIPU3Z0NwXGj">
    <mxGraphModel dx="1282" dy="615" grid="0" gridSize="10" guides="1" tooltips="1" connect="1" arrows="1" fold="1" page="0" pageScale="1" pageWidth="827" pageHeight="1169" math="0" shadow="0">
      <root>
        <mxCell id="0" />
        <mxCell id="1" parent="0" />
        <mxCell id="rQ2df4vWdalVbfbEbj8P-9" style="edgeStyle=none;curved=1;rounded=0;orthogonalLoop=1;jettySize=auto;html=1;exitX=0.5;exitY=0.5;exitDx=0;exitDy=0;exitPerimeter=0;fontSize=12;startSize=8;endSize=8;" edge="1" parent="1" source="rQ2df4vWdalVbfbEbj8P-1">
          <mxGeometry relative="1" as="geometry">
            <mxPoint x="340" y="179" as="targetPoint" />
          </mxGeometry>
        </mxCell>
        <mxCell id="rQ2df4vWdalVbfbEbj8P-10" value="&amp;nbsp; &amp;nbsp; &amp;nbsp; &amp;nbsp; &amp;nbsp;Rezerwacja seansu" style="edgeLabel;html=1;align=center;verticalAlign=middle;resizable=0;points=[];fontSize=12;" vertex="1" connectable="0" parent="rQ2df4vWdalVbfbEbj8P-9">
          <mxGeometry x="-0.2832" y="2" relative="1" as="geometry">
            <mxPoint as="offset" />
          </mxGeometry>
        </mxCell>
        <mxCell id="rQ2df4vWdalVbfbEbj8P-1" value="Użytkownik" style="shape=umlActor;verticalLabelPosition=bottom;verticalAlign=top;html=1;outlineConnect=0;" vertex="1" parent="1">
          <mxGeometry x="117" y="200" width="30" height="60" as="geometry" />
        </mxCell>
        <mxCell id="rQ2df4vWdalVbfbEbj8P-2" value="Administrator" style="shape=umlActor;verticalLabelPosition=bottom;verticalAlign=top;html=1;outlineConnect=0;" vertex="1" parent="1">
          <mxGeometry x="117" y="376" width="36" height="66" as="geometry" />
        </mxCell>
        <mxCell id="rQ2df4vWdalVbfbEbj8P-3" value="MS Server" style="rounded=0;whiteSpace=wrap;html=1;" vertex="1" parent="1">
          <mxGeometry x="284" y="100" width="120" height="60" as="geometry" />
        </mxCell>
        <mxCell id="rQ2df4vWdalVbfbEbj8P-4" value="Oracle" style="rounded=0;whiteSpace=wrap;html=1;" vertex="1" parent="1">
          <mxGeometry x="438" y="100" width="120" height="60" as="geometry" />
        </mxCell>
        <mxCell id="rQ2df4vWdalVbfbEbj8P-5" value="" style="endArrow=none;dashed=1;html=1;rounded=0;fontSize=12;startSize=8;endSize=8;curved=1;entryX=0.5;entryY=1;entryDx=0;entryDy=0;" edge="1" parent="1" target="rQ2df4vWdalVbfbEbj8P-3">
          <mxGeometry width="50" height="50" relative="1" as="geometry">
            <mxPoint x="347" y="635" as="sourcePoint" />
            <mxPoint x="431" y="365" as="targetPoint" />
          </mxGeometry>
        </mxCell>
        <mxCell id="rQ2df4vWdalVbfbEbj8P-6" value="" style="endArrow=none;dashed=1;html=1;rounded=0;fontSize=12;startSize=8;endSize=8;curved=1;entryX=0.5;entryY=1;entryDx=0;entryDy=0;" edge="1" parent="1" target="rQ2df4vWdalVbfbEbj8P-4">
          <mxGeometry width="50" height="50" relative="1" as="geometry">
            <mxPoint x="502" y="625" as="sourcePoint" />
            <mxPoint x="492" y="173" as="targetPoint" />
          </mxGeometry>
        </mxCell>
        <mxCell id="rQ2df4vWdalVbfbEbj8P-11" value="" style="endArrow=classic;html=1;rounded=0;fontSize=12;startSize=8;endSize=8;curved=1;exitX=0.5;exitY=0.5;exitDx=0;exitDy=0;exitPerimeter=0;" edge="1" parent="1" source="rQ2df4vWdalVbfbEbj8P-1">
          <mxGeometry width="50" height="50" relative="1" as="geometry">
            <mxPoint x="381" y="415" as="sourcePoint" />
            <mxPoint x="349" y="235" as="targetPoint" />
          </mxGeometry>
        </mxCell>
        <mxCell id="rQ2df4vWdalVbfbEbj8P-12" value="Pokaz_seanse" style="edgeLabel;html=1;align=center;verticalAlign=middle;resizable=0;points=[];fontSize=12;" vertex="1" connectable="0" parent="rQ2df4vWdalVbfbEbj8P-11">
          <mxGeometry x="0.1104" relative="1" as="geometry">
            <mxPoint as="offset" />
          </mxGeometry>
        </mxCell>
        <mxCell id="rQ2df4vWdalVbfbEbj8P-14" value="" style="endArrow=classic;html=1;rounded=0;fontSize=12;startSize=8;endSize=8;curved=1;exitX=0.5;exitY=0.5;exitDx=0;exitDy=0;exitPerimeter=0;" edge="1" parent="1" source="rQ2df4vWdalVbfbEbj8P-1">
          <mxGeometry width="50" height="50" relative="1" as="geometry">
            <mxPoint x="197" y="275" as="sourcePoint" />
            <mxPoint x="346" y="281" as="targetPoint" />
          </mxGeometry>
        </mxCell>
        <mxCell id="rQ2df4vWdalVbfbEbj8P-15" value="Pokaz_rezerwacje" style="edgeLabel;html=1;align=center;verticalAlign=middle;resizable=0;points=[];fontSize=12;" vertex="1" connectable="0" parent="rQ2df4vWdalVbfbEbj8P-14">
          <mxGeometry x="-0.2666" y="-1" relative="1" as="geometry">
            <mxPoint x="18" as="offset" />
          </mxGeometry>
        </mxCell>
        <mxCell id="rQ2df4vWdalVbfbEbj8P-16" value="" style="endArrow=classic;html=1;rounded=0;fontSize=12;startSize=8;endSize=8;curved=1;exitX=0.5;exitY=0.5;exitDx=0;exitDy=0;exitPerimeter=0;" edge="1" parent="1" source="rQ2df4vWdalVbfbEbj8P-2">
          <mxGeometry width="50" height="50" relative="1" as="geometry">
            <mxPoint x="381" y="415" as="sourcePoint" />
            <mxPoint x="344" y="381" as="targetPoint" />
          </mxGeometry>
        </mxCell>
        <mxCell id="rQ2df4vWdalVbfbEbj8P-17" value="Dodaj_seans" style="edgeLabel;html=1;align=center;verticalAlign=middle;resizable=0;points=[];fontSize=12;" vertex="1" connectable="0" parent="rQ2df4vWdalVbfbEbj8P-16">
          <mxGeometry x="-0.2287" relative="1" as="geometry">
            <mxPoint as="offset" />
          </mxGeometry>
        </mxCell>
        <mxCell id="rQ2df4vWdalVbfbEbj8P-18" value="" style="endArrow=classic;html=1;rounded=0;fontSize=12;startSize=8;endSize=8;curved=1;exitX=0.5;exitY=0.5;exitDx=0;exitDy=0;exitPerimeter=0;" edge="1" parent="1" source="rQ2df4vWdalVbfbEbj8P-2">
          <mxGeometry width="50" height="50" relative="1" as="geometry">
            <mxPoint x="381" y="415" as="sourcePoint" />
            <mxPoint x="345" y="427" as="targetPoint" />
          </mxGeometry>
        </mxCell>
        <mxCell id="rQ2df4vWdalVbfbEbj8P-19" value="Dodaj_film" style="edgeLabel;html=1;align=center;verticalAlign=middle;resizable=0;points=[];fontSize=12;" vertex="1" connectable="0" parent="rQ2df4vWdalVbfbEbj8P-18">
          <mxGeometry x="0.0095" y="1" relative="1" as="geometry">
            <mxPoint as="offset" />
          </mxGeometry>
        </mxCell>
        <mxCell id="rQ2df4vWdalVbfbEbj8P-20" value="" style="endArrow=classic;html=1;rounded=0;fontSize=12;startSize=8;endSize=8;curved=1;exitX=0.5;exitY=0.5;exitDx=0;exitDy=0;exitPerimeter=0;" edge="1" parent="1" source="rQ2df4vWdalVbfbEbj8P-2">
          <mxGeometry width="50" height="50" relative="1" as="geometry">
            <mxPoint x="381" y="415" as="sourcePoint" />
            <mxPoint x="341" y="489" as="targetPoint" />
          </mxGeometry>
        </mxCell>
        <mxCell id="rQ2df4vWdalVbfbEbj8P-21" value="Popularność filmu" style="edgeLabel;html=1;align=center;verticalAlign=middle;resizable=0;points=[];fontSize=12;" vertex="1" connectable="0" parent="rQ2df4vWdalVbfbEbj8P-20">
          <mxGeometry x="-0.2947" y="2" relative="1" as="geometry">
            <mxPoint x="25" y="5" as="offset" />
          </mxGeometry>
        </mxCell>
        <mxCell id="rQ2df4vWdalVbfbEbj8P-22" value="" style="endArrow=classic;html=1;rounded=0;fontSize=12;startSize=8;endSize=8;curved=1;" edge="1" parent="1">
          <mxGeometry width="50" height="50" relative="1" as="geometry">
            <mxPoint x="345" y="334" as="sourcePoint" />
            <mxPoint x="500" y="334" as="targetPoint" />
          </mxGeometry>
        </mxCell>
        <mxCell id="rQ2df4vWdalVbfbEbj8P-23" value="Rezerwacja_seansu" style="edgeLabel;html=1;align=center;verticalAlign=middle;resizable=0;points=[];fontSize=12;" vertex="1" connectable="0" parent="rQ2df4vWdalVbfbEbj8P-22">
          <mxGeometry x="-0.0271" y="-2" relative="1" as="geometry">
            <mxPoint as="offset" />
          </mxGeometry>
        </mxCell>
        <mxCell id="rQ2df4vWdalVbfbEbj8P-24" value="" style="endArrow=classic;html=1;rounded=0;fontSize=12;startSize=8;endSize=8;curved=1;" edge="1" parent="1">
          <mxGeometry width="50" height="50" relative="1" as="geometry">
            <mxPoint x="348" y="415" as="sourcePoint" />
            <mxPoint x="503" y="415" as="targetPoint" />
          </mxGeometry>
        </mxCell>
        <mxCell id="rQ2df4vWdalVbfbEbj8P-25" value="Dodaj_film" style="edgeLabel;html=1;align=center;verticalAlign=middle;resizable=0;points=[];fontSize=12;" vertex="1" connectable="0" parent="rQ2df4vWdalVbfbEbj8P-24">
          <mxGeometry x="-0.0916" y="2" relative="1" as="geometry">
            <mxPoint as="offset" />
          </mxGeometry>
        </mxCell>
        <mxCell id="rQ2df4vWdalVbfbEbj8P-28" value="" style="endArrow=classic;html=1;rounded=0;fontSize=12;startSize=8;endSize=8;curved=1;" edge="1" parent="1">
          <mxGeometry width="50" height="50" relative="1" as="geometry">
            <mxPoint x="348" y="485" as="sourcePoint" />
            <mxPoint x="501" y="485" as="targetPoint" />
          </mxGeometry>
        </mxCell>
        <mxCell id="rQ2df4vWdalVbfbEbj8P-29" value="Pokaz_rezerwacje" style="edgeLabel;html=1;align=center;verticalAlign=middle;resizable=0;points=[];fontSize=12;" vertex="1" connectable="0" parent="rQ2df4vWdalVbfbEbj8P-28">
          <mxGeometry x="0.1686" relative="1" as="geometry">
            <mxPoint as="offset" />
          </mxGeometry>
        </mxCell>
        <mxCell id="rQ2df4vWdalVbfbEbj8P-31" value="" style="endArrow=classic;html=1;rounded=0;fontSize=12;startSize=8;endSize=8;curved=1;exitX=0.5;exitY=0.5;exitDx=0;exitDy=0;exitPerimeter=0;" edge="1" parent="1" source="rQ2df4vWdalVbfbEbj8P-2">
          <mxGeometry width="50" height="50" relative="1" as="geometry">
            <mxPoint x="175" y="530" as="sourcePoint" />
            <mxPoint x="345" y="581" as="targetPoint" />
          </mxGeometry>
        </mxCell>
        <mxCell id="rQ2df4vWdalVbfbEbj8P-32" value="wyświetlanie_kin" style="edgeLabel;html=1;align=center;verticalAlign=middle;resizable=0;points=[];fontSize=12;" vertex="1" connectable="0" parent="rQ2df4vWdalVbfbEbj8P-31">
          <mxGeometry x="-0.2472" y="1" relative="1" as="geometry">
            <mxPoint x="1" as="offset" />
          </mxGeometry>
        </mxCell>
      </root>
    </mxGraphModel>
  </diagram>
</mxfile>
